<?xml version="1.0" encoding="UTF-8"?>
<!DOCTYPE svg PUBLIC "-//W3C//DTD SVG 1.1//EN" "http://www.w3.org/Graphics/SVG/1.1/DTD/svg11.dtd">
<svg xmlns="http://www.w3.org/2000/svg" version="1.1" width="345px" height="345px" style="shape-rendering:geometricPrecision; text-rendering:geometricPrecision; image-rendering:optimizeQuality; fill-rule:evenodd; clip-rule:evenodd" xmlns:xlink="http://www.w3.org/1999/xlink">
<g><path style="opacity:0.882" fill="#000000" d="M 92.5,11.5 C 133.574,9.24781 169.907,21.0811 201.5,47C 206.003,51.3641 205.336,53.6974 199.5,54C 159.075,28.1772 115.742,21.8439 69.5,35C 41.7355,45.7779 27.7355,66.1113 27.5,96C 27.8893,108.17 30.056,120.004 34,131.5C 37.3842,139.445 42.5509,145.945 49.5,151C 61.529,159.928 75.029,165.095 90,166.5C 106.297,164.682 119.63,157.349 130,144.5C 141.146,125.627 141.146,106.627 130,87.5C 110.092,67.5036 89.4257,66.5036 68,84.5C 60.0443,98.3343 60.0443,112.001 68,125.5C 78.1419,134.879 89.3086,136.045 101.5,129C 105.626,124.747 106.459,119.913 104,114.5C 102.745,112.406 100.912,111.406 98.5,111.5C 94.9006,112.762 91.2339,113.262 87.5,113C 86.1337,110.618 86.467,108.452 88.5,106.5C 102.385,98.1896 113.552,100.856 122,114.5C 124.642,131.055 118.142,142.222 102.5,148C 74.6056,156.137 55.7722,146.637 46,119.5C 40.8057,80.5382 57.639,58.5382 96.5,53.5C 129.821,55.9901 149.321,73.6567 155,106.5C 158.406,136.52 147.239,159.354 121.5,175C 106.449,183.96 90.4491,186.293 73.5,182C 54.3095,176.496 38.1428,166.33 25,151.5C 14.792,134.644 9.95868,116.311 10.5,96.5C 11.1936,55.303 31.1936,28.4696 70.5,16C 77.9472,14.375 85.2805,12.875 92.5,11.5 Z"/></g>
<g><path style="opacity:0.886" fill="#000000" d="M 239.5,50.5 C 283.951,50.4587 314.784,70.792 332,111.5C 341.051,142.457 339.051,172.79 326,202.5C 320.066,213.181 312.566,222.681 303.5,231C 289.447,243.725 274.281,254.892 258,264.5C 255.019,263.557 254.019,261.557 255,258.5C 271.033,244.134 286.033,228.801 300,212.5C 319.258,183.543 324.591,152.21 316,118.5C 299.018,80.2585 269.851,64.4252 228.5,71C 194.007,88.1264 183.173,114.96 196,151.5C 203.393,167.295 215.893,175.795 233.5,177C 260.366,180.907 276.366,169.574 281.5,143C 278.346,126.345 269.013,114.678 253.5,108C 232.458,105.041 223.624,113.875 227,134.5C 229.133,136.853 231.8,137.853 235,137.5C 237.352,137.695 239.352,137.028 241,135.5C 241.847,131.682 243.014,128.016 244.5,124.5C 246.751,123.135 248.751,123.469 250.5,125.5C 257.266,141.969 251.932,151.969 234.5,155.5C 213.557,152.682 205.057,140.682 209,119.5C 212.941,102.25 223.774,92.417 241.5,90C 259.05,88.3578 273.217,94.5244 284,108.5C 305.728,137.559 302.561,163.726 274.5,187C 264.473,192.939 253.639,195.439 242,194.5C 205.317,195.469 182.984,178.135 175,142.5C 168.64,104.055 182.474,75.5552 216.5,57C 223.992,53.7144 231.659,51.5477 239.5,50.5 Z"/></g>
<g><path style="opacity:0.884" fill="#000000" d="M 152.5,180.5 C 179.753,178.633 202.586,187.633 221,207.5C 230.395,220.617 234.561,235.283 233.5,251.5C 231.516,308.316 202.016,336.983 145,337.5C 113.724,336.194 87.7239,323.861 67,300.5C 56.7943,289.431 49.1276,276.765 44,262.5C 39.6887,238.907 39.3554,215.24 43,191.5C 44.3957,189.473 46.0624,189.14 48,190.5C 48.5559,212.285 51.8893,233.619 58,254.5C 69.2482,280.416 87.4149,299.916 112.5,313C 136.58,321.831 160.58,321.498 184.5,312C 200.77,303.332 210.603,289.832 214,271.5C 223.761,226.986 206.094,202.32 161,197.5C 132.604,200.913 118.771,217.079 119.5,246C 119.333,262.494 127,273.494 142.5,279C 175.997,287.17 188.164,274.67 179,241.5C 173.269,239.035 167.436,238.868 161.5,241C 155.996,246.487 154.996,252.82 158.5,260C 157.942,262.058 156.609,263.225 154.5,263.5C 141.965,258.412 138.131,249.412 143,236.5C 147.249,228.117 154.082,223.283 163.5,222C 181.113,219.041 192.613,225.874 198,242.5C 202.369,258.282 200.036,272.949 191,286.5C 182.631,295.904 172.131,299.904 159.5,298.5C 136.348,299.51 118.848,290.177 107,270.5C 101.134,252.23 101.134,233.896 107,215.5C 115.888,195.493 131.055,183.826 152.5,180.5 Z"/></g>
</svg>
