<?xml version="1.0" encoding="UTF-8"?>
<!DOCTYPE svg PUBLIC "-//W3C//DTD SVG 1.1//EN" "http://www.w3.org/Graphics/SVG/1.1/DTD/svg11.dtd">
<svg xmlns="http://www.w3.org/2000/svg" version="1.1" width="345px" height="345px" style="shape-rendering:geometricPrecision; text-rendering:geometricPrecision; image-rendering:optimizeQuality; fill-rule:evenodd; clip-rule:evenodd" xmlns:xlink="http://www.w3.org/1999/xlink">
<g><path style="opacity:0.849" fill="#000000" d="M 344.5,156.5 C 344.5,162.167 344.5,167.833 344.5,173.5C 342.611,205.714 334.445,236.38 320,265.5C 295.82,304.865 260.987,329.365 215.5,339C 171.894,344.011 129.561,338.678 88.5,323C 41.4056,300.883 13.5722,264.05 5,212.5C -4.44726,155.636 9.55274,105.636 47,62.5C 59.8153,48.0052 74.6487,36.1718 91.5,27C 145.615,2.43674 200.615,0.103404 256.5,20C 296.646,39.4856 323.146,70.6523 336,113.5C 339.929,127.764 342.762,142.098 344.5,156.5 Z M 162.5,20.5 C 189.744,18.2803 216.411,21.1137 242.5,29C 269.66,40.4756 282.16,60.9756 280,90.5C 268.962,115.926 250.796,122.759 225.5,111C 224.543,98.5046 221.543,86.5046 216.5,75C 228.564,60.4741 242.231,58.8074 257.5,70C 261.299,75.9259 262.465,82.4259 261,89.5C 256.952,96.4456 251.452,97.9456 244.5,94C 243.13,92.5587 242.13,90.892 241.5,89C 242.848,86.9896 244.182,84.9896 245.5,83C 245,81.1667 243.833,80 242,79.5C 234.577,82.6678 232.577,88.0011 236,95.5C 241.132,102.325 247.965,104.825 256.5,103C 263.401,100.432 267.901,95.5983 270,88.5C 272.086,66.5615 262.086,53.8949 240,50.5C 228.182,51.0726 218.849,56.0726 212,65.5C 193.046,39.2715 167.213,26.1048 134.5,26C 143.909,23.8248 153.242,21.9915 162.5,20.5 Z M 120.5,38.5 C 137.755,37.2094 154.421,39.7094 170.5,46C 203.4,63.9738 216.233,91.4738 209,128.5C 194.749,158.196 172.916,165.363 143.5,150C 141.393,138.342 138.06,127.008 133.5,116C 136.254,109.157 140.254,103.157 145.5,98C 154.212,94.1424 163.212,93.4758 172.5,96C 182.322,101.279 187.656,109.613 188.5,121C 187.271,133.574 180.604,138.241 168.5,135C 161.567,129.213 161.901,124.046 169.5,119.5C 167.529,116.241 164.862,115.741 161.5,118C 155.366,123.941 154.866,130.441 160,137.5C 167.641,144.073 176.141,145.239 185.5,141C 191.079,137.677 194.579,132.844 196,126.5C 197.204,94.0401 181.704,80.2068 149.5,85C 139.298,88.694 131.298,95.194 125.5,104.5C 105.963,87.868 83.6301,82.7014 58.5,89C 50.7109,92.2278 43.3776,95.8944 36.5,100C 50.4045,76.095 69.0712,56.7617 92.5,42C 101.907,40.2697 111.241,39.1031 120.5,38.5 Z M 286.5,56.5 C 306.217,75.9195 319.217,99.2528 325.5,126.5C 325.167,127.167 324.833,127.833 324.5,128.5C 308.798,122.764 292.798,121.931 276.5,126C 256.716,128.477 239.049,135.81 223.5,148C 198.791,169.044 173.791,189.711 148.5,210C 105.483,236.821 62.1498,237.321 18.5,211.5C 17.7022,209.922 17.2022,208.256 17,206.5C 16.3333,191.5 16.3333,176.5 17,161.5C 18.0509,148.242 20.8843,135.409 25.5,123C 37.8715,113.313 51.5382,105.98 66.5,101C 82.1091,98.2788 96.7758,100.945 110.5,109C 120.294,118.013 126.127,129.18 128,142.5C 132.949,163.641 127.782,181.808 112.5,197C 107.639,200.177 102.305,202.177 96.5,203C 87.7704,203.876 79.1037,203.542 70.5,202C 53.6669,195.179 46.5002,182.679 49,164.5C 55.4539,147.356 67.6205,140.856 85.5,145C 95.4935,149.301 100.494,156.968 100.5,168C 98.498,178.331 92.498,181.997 82.5,179C 80.1078,176.272 78.1078,173.272 76.5,170C 74.0752,169.014 72.4085,169.681 71.5,172C 75.974,187.935 85.6407,192.269 100.5,185C 106.46,180.077 109.127,173.743 108.5,166C 107.201,145.033 96.0343,133.533 75,131.5C 50.4312,135.397 38.0978,149.73 38,174.5C 39.2047,192.107 47.7047,204.607 63.5,212C 106.908,222.228 133.408,205.728 143,162.5C 170.945,177.553 194.611,172.553 214,147.5C 219.608,139.284 223.275,130.284 225,120.5C 247.604,131.846 266.937,127.846 283,108.5C 288.226,100.821 291.06,92.3207 291.5,83C 290.921,73.9385 289.254,65.1051 286.5,56.5 Z M 299.5,135.5 C 309.249,135.76 318.916,136.76 328.5,138.5C 330.052,148.432 330.719,158.432 330.5,168.5C 305.038,164.643 281.038,168.809 258.5,181C 248.32,186.587 238.654,192.921 229.5,200C 205.252,221.117 179.918,240.784 153.5,259C 123.152,273.085 91.4852,277.085 58.5,271C 52.4423,269.536 46.4423,267.87 40.5,266C 31.5724,254.541 25.739,241.708 23,227.5C 58.0503,247.475 94.217,249.642 131.5,234C 139.991,229.922 148.324,225.588 156.5,221C 177.752,204.419 198.419,187.086 218.5,169C 226.5,163 234.5,157 242.5,151C 260.555,141.905 279.555,136.739 299.5,135.5 Z M 314.5,178.5 C 319.833,178.5 325.167,178.5 330.5,178.5C 329.665,193.177 326.998,207.51 322.5,221.5C 312.501,221.057 302.501,221.557 292.5,223C 272.319,230.754 253.653,241.087 236.5,254C 220.035,271.804 202.369,288.138 183.5,303C 165.253,312.229 145.919,317.729 125.5,319.5C 96.4761,314.823 71.8095,301.99 51.5,281C 74.3861,288.607 97.7194,289.607 121.5,284C 143.102,280.195 162.435,271.529 179.5,258C 201.05,241.719 222.05,224.719 242.5,207C 263.8,190.511 287.8,181.011 314.5,178.5 Z M 311.5,230.5 C 314.167,230.5 316.833,230.5 319.5,230.5C 310.185,263.982 290.518,289.482 260.5,307C 226.243,327.134 189.576,333.134 150.5,325C 164.907,323.982 178.573,320.315 191.5,314C 197.5,309.333 203.5,304.667 209.5,300C 222.529,286.637 235.862,273.637 249.5,261C 262.17,251.994 275.504,243.994 289.5,237C 296.77,234.188 304.104,232.021 311.5,230.5 Z"/></g>
</svg>
