<?xml version="1.0" encoding="UTF-8"?>
<!DOCTYPE svg PUBLIC "-//W3C//DTD SVG 1.1//EN" "http://www.w3.org/Graphics/SVG/1.1/DTD/svg11.dtd">
<svg xmlns="http://www.w3.org/2000/svg" version="1.1" width="345px" height="345px" style="shape-rendering:geometricPrecision; text-rendering:geometricPrecision; image-rendering:optimizeQuality; fill-rule:evenodd; clip-rule:evenodd" xmlns:xlink="http://www.w3.org/1999/xlink">
<g><path style="opacity:0.817" fill="#000000" d="M 179.5,13.5 C 182.785,13.2693 185.285,14.6026 187,17.5C 194.127,27.3052 200.46,37.6385 206,48.5C 209.686,57.6281 211.519,67.1281 211.5,77C 210.919,87.5635 209.752,98.0635 208,108.5C 205.129,119.114 201.462,129.448 197,139.5C 193.822,147.19 193.822,154.857 197,162.5C 200.476,170.957 205.142,178.624 211,185.5C 208.333,161.501 214.667,140.168 230,121.5C 242.407,107.231 256.907,95.7313 273.5,87C 276.141,84.7909 278.975,84.2909 282,85.5C 282.667,86.8333 282.667,88.1667 282,89.5C 275.894,103.758 272.061,118.591 270.5,134C 271.14,140.059 272.64,145.892 275,151.5C 283.535,168.019 292.869,184.019 303,199.5C 310.795,216.007 314.128,233.34 313,251.5C 311.132,264.234 305.799,275.234 297,284.5C 279.142,305.183 256.642,317.683 229.5,322C 219.175,328.775 207.842,332.775 195.5,334C 171.467,337.103 147.801,335.437 124.5,329C 101.826,318.994 85.9925,302.494 77,279.5C 75.4521,270.562 75.1188,261.562 76,252.5C 78.6327,237.673 81.1327,222.839 83.5,208C 82.6188,198.429 81.2855,188.929 79.5,179.5C 80.8333,179.5 82.1667,179.5 83.5,179.5C 87.2549,190.188 89.5883,201.188 90.5,212.5C 88.7828,225.471 87.2828,238.471 86,251.5C 84.3231,278.648 95.1564,299.148 118.5,313C 135.101,321.608 152.768,325.108 171.5,323.5C 216.389,326.419 245.223,306.419 258,263.5C 259.474,254.546 259.807,245.546 259,236.5C 255.445,221.28 251.111,206.28 246,191.5C 244.253,184.93 243.086,178.264 242.5,171.5C 243.526,157.68 245.526,144.013 248.5,130.5C 249.833,130.5 251.167,130.5 252.5,130.5C 250.406,145.101 249.573,159.767 250,174.5C 254.858,192.409 260.525,210.075 267,227.5C 273.315,251.93 269.315,274.597 255,295.5C 251.532,300.934 247.699,306.101 243.5,311C 252.833,308.67 261.5,304.67 269.5,299C 283.499,287.347 293.999,273.181 301,256.5C 302.966,247.175 302.966,237.842 301,228.5C 299.066,221.363 296.732,214.363 294,207.5C 285.412,191.992 277.079,176.325 269,160.5C 263.302,149.02 261.635,137.02 264,124.5C 265.929,115.213 268.762,106.213 272.5,97.5C 272.167,97.1667 271.833,96.8333 271.5,96.5C 252.617,109.213 237.784,125.546 227,145.5C 221.374,159.384 219.708,173.717 222,188.5C 226.671,203.84 231.338,219.173 236,234.5C 238.493,270.649 222.659,294.482 188.5,306C 154.606,314.267 128.44,303.767 110,274.5C 108.259,269.946 106.926,265.279 106,260.5C 108.929,234.007 105.596,208.34 96,183.5C 90.3891,173.223 82.2225,165.723 71.5,161C 65.6235,157.721 59.6235,155.055 53.5,153C 65.5925,170.057 68.4258,188.557 62,208.5C 57.3333,219.167 52.6667,229.833 48,240.5C 40.815,268.012 49.6484,288.179 74.5,301C 75.3802,302.356 75.7135,303.856 75.5,305.5C 49.6627,299.541 36.3294,283.208 35.5,256.5C 36.0782,250.462 36.9116,244.462 38,238.5C 42.4699,227.561 47.4699,216.895 53,206.5C 54.5376,200.404 55.7043,194.237 56.5,188C 54.807,173.588 50.307,160.088 43,147.5C 41.9277,144.447 42.9277,142.447 46,141.5C 60.566,146.366 74.7327,152.2 88.5,159C 95.7184,163.218 101.218,169.052 105,176.5C 100.085,151.492 106.085,129.492 123,110.5C 133.591,102.58 143.591,93.9136 153,84.5C 161.025,74.7857 166.691,63.7857 170,51.5C 172.846,39.9369 175.179,28.2702 177,16.5C 177.698,15.3094 178.531,14.3094 179.5,13.5 Z M 109.5,185.5 C 111.601,188.179 113.601,191.012 115.5,194C 117.607,194.854 118.941,194.188 119.5,192C 107.933,166.758 110.767,143.258 128,121.5C 136.246,113.25 145.079,105.75 154.5,99C 165.809,88.0247 174.309,75.1914 180,60.5C 181.854,50.8495 183.521,41.1828 185,31.5C 200.048,56.2192 203.382,82.5525 195,110.5C 190.727,121.652 187.06,132.986 184,144.5C 182.558,155.397 184.891,165.397 191,174.5C 198.944,186.045 207.61,197.045 217,207.5C 225.454,218.747 228.454,231.414 226,245.5C 222.035,272.797 206.535,288.964 179.5,294C 151.458,298.567 131.625,288.067 120,262.5C 114.645,239.395 121.479,220.895 140.5,207C 158.635,197.133 175.635,198.8 191.5,212C 198.709,218.988 201.542,227.488 200,237.5C 199.532,249.263 195.032,259.096 186.5,267C 170.608,275.569 157.775,272.402 148,257.5C 145.095,247.342 147.262,238.509 154.5,231C 162.857,225.558 170.357,226.391 177,233.5C 178.536,237.395 178.536,241.395 177,245.5C 173.054,250.789 168.221,251.789 162.5,248.5C 158.961,249.635 158.628,251.468 161.5,254C 170.174,259.01 177.674,257.51 184,249.5C 191.028,234.909 187.194,224.409 172.5,218C 149.451,215.882 137.451,226.382 136.5,249.5C 137.049,265.563 145.049,276.063 160.5,281C 185.3,285.029 201.466,275.195 209,251.5C 216.109,212.438 199.942,190.438 160.5,185.5C 158.151,181.805 156.651,177.805 156,173.5C 154.896,164.011 155.562,154.677 158,145.5C 161.582,137.997 165.915,130.997 171,124.5C 175.88,115.407 180.214,106.073 184,96.5C 185.691,87.9876 187.191,79.4876 188.5,71C 187.383,69.1079 185.716,68.2746 183.5,68.5C 181.621,76.679 179.121,84.679 176,92.5C 168.674,107.161 160.34,121.161 151,134.5C 143.513,149.397 141.179,165.064 144,181.5C 144.765,184.196 145.932,186.696 147.5,189C 133.552,193.554 122.719,202.054 115,214.5C 114.456,204.567 112.623,194.9 109.5,185.5 Z"/></g>
</svg>
