<?xml version="1.0" encoding="UTF-8"?>
<!DOCTYPE svg PUBLIC "-//W3C//DTD SVG 1.1//EN" "http://www.w3.org/Graphics/SVG/1.1/DTD/svg11.dtd">
<svg xmlns="http://www.w3.org/2000/svg" version="1.1" width="345px" height="345px" style="shape-rendering:geometricPrecision; text-rendering:geometricPrecision; image-rendering:optimizeQuality; fill-rule:evenodd; clip-rule:evenodd" xmlns:xlink="http://www.w3.org/1999/xlink">
<g><path style="opacity:0.86" fill="#000000" d="M 123.5,9.5 C 162.501,9.33335 201.501,9.50001 240.5,10C 245.151,10.7416 248.984,12.9083 252,16.5C 258.113,28.8409 263.447,41.5075 268,54.5C 288.728,113.35 309.061,172.35 329,231.5C 337.882,260.531 340.882,290.198 338,320.5C 336.91,326.588 333.41,330.421 327.5,332C 297.897,334.532 268.23,335.699 238.5,335.5C 225.833,335.333 213.167,335.167 200.5,335C 198.392,334.64 196.392,333.973 194.5,333C 192.677,329.83 190.677,326.83 188.5,324C 188.611,322.278 189.111,322.112 190,323.5C 190.354,299.494 190.354,275.494 190,251.5C 190.73,247.104 193.23,244.27 197.5,243C 231.483,241.448 265.483,241.115 299.5,242C 303.704,246.155 303.371,249.822 298.5,253C 266.491,253.611 234.491,254.445 202.5,255.5C 202.198,263.556 202.531,271.556 203.5,279.5C 234.817,281.673 266.15,282.007 297.5,280.5C 305.905,282.056 307.572,286.222 302.5,293C 269.166,294.731 235.832,295.564 202.5,295.5C 201.26,304.147 201.26,312.813 202.5,321.5C 234.162,322.421 265.829,322.255 297.5,321C 306.572,320.83 315.572,319.996 324.5,318.5C 327.83,286.666 323.997,255.666 313,225.5C 292.728,166.016 272.061,106.683 251,47.5C 247.942,39.7166 244.608,32.0499 241,24.5C 238.931,23.7362 236.764,23.2362 234.5,23C 206.833,22.3333 179.167,22.3333 151.5,23C 139.11,23.0819 126.777,23.7486 114.5,25C 110.281,27.552 107.114,31.052 105,35.5C 76.1179,111.604 49.7846,188.604 26,266.5C 23.8017,285.216 24.135,303.882 27,322.5C 28.0674,323.191 29.2341,323.691 30.5,324C 74.1826,324.603 117.849,324.103 161.5,322.5C 161.5,313.167 161.5,303.833 161.5,294.5C 149.684,295.099 137.851,295.432 126,295.5C 104.734,295.57 83.5671,294.737 62.5,293C 59.6342,289.057 59.9676,285.39 63.5,282C 83.3334,281.667 103.167,281.833 123,282.5C 135.192,282.522 147.358,282.022 159.5,281C 161.046,276.688 161.713,272.188 161.5,267.5C 161.453,263.733 160.786,260.233 159.5,257C 126.829,256.642 94.1624,256.642 61.5,257C 58.7104,254.79 57.877,251.956 59,248.5C 60.236,246.462 62.0694,245.295 64.5,245C 94.1604,243.853 123.827,243.52 153.5,244C 158.584,244.173 163.584,244.839 168.5,246C 169.333,246.833 170.167,247.667 171,248.5C 172.103,274.062 173.269,299.562 174.5,325C 171.728,332.899 166.061,336.566 157.5,336C 123.671,337.02 89.8378,337.853 56,338.5C 46.1649,338.035 36.3316,337.535 26.5,337C 17.6674,335.219 13.1674,329.719 13,320.5C 12.0443,310.836 11.2109,301.169 10.5,291.5C 11.2109,281.831 12.0443,272.164 13,262.5C 37.3559,182.431 64.6892,103.431 95,25.5C 101.744,15.0494 111.244,9.71602 123.5,9.5 Z"/></g>
<g><path style="opacity:0.799" fill="#000000" d="M 171.5,59.5 C 199.244,58.1246 221.41,68.4579 238,90.5C 247.318,109.463 248.984,129.129 243,149.5C 229.397,180.384 206.231,191.551 173.5,183C 155.009,175.708 146.009,162.041 146.5,142C 146.843,112.65 161.51,98.9829 190.5,101C 204.18,105.699 211.513,115.366 212.5,130C 211.713,146.128 203.379,153.795 187.5,153C 181.365,150.698 177.031,146.531 174.5,140.5C 175.722,137.911 177.722,137.077 180.5,138C 188.835,148.3 196.335,147.8 203,136.5C 205.111,127.825 202.944,120.325 196.5,114C 183.161,107.266 171.328,109.433 161,120.5C 154.07,133.995 153.737,147.662 160,161.5C 172.459,176.094 187.959,180.594 206.5,175C 220.978,168.523 230.478,157.69 235,142.5C 243.485,106.966 230.319,83.7996 195.5,73C 167.143,68.4491 143.977,77.2824 126,99.5C 108.368,133.985 113.201,164.818 140.5,192C 156.135,201.775 173.135,205.441 191.5,203C 200.669,200.495 209.669,197.829 218.5,195C 219.935,197.267 219.602,199.267 217.5,201C 193.357,213.89 168.69,214.89 143.5,204C 121.865,190.609 109.365,171.109 106,145.5C 103.55,97.9793 125.383,69.3126 171.5,59.5 Z"/></g>
</svg>
